<?xml version="1.0" encoding="UTF-8"?>
<svg id="text" xmlns="http://www.w3.org/2000/svg" viewBox="0 0 250 250">
  <defs>
    <style>
      .cls-1 {
        fill: #fff;
        fill-rule: evenodd;
      }
    </style>
  </defs>
  <g>
    <path class="cls-1" d="M130.16,31.75c-4.76,5.67-5.3,7.5-3.11,12.26,1.83,4.02,1.65,5.3-1.1,8.41-4.39,4.76-2.01,7.13,2.74,2.74,4.02-3.66,4.76-10.06,1.46-13.35-1.65-1.65-1.28-3.11,1.83-6.4,2.2-2.38,4.02-4.76,4.02-5.49,0-2.38-3.11-1.28-5.85,1.83Z"/>
    <path class="cls-1" d="M83.7,50.59c-10.98,5.49-43.54,39.51-46.46,48.29-3.11,9.33-1.28,19.94,4.57,28.54,9.88,14.09,25.43,20.67,38.78,16.46,9.88-3.29,47.01-39.88,51.04-50.49,10.06-26.52-22.68-55.79-47.93-42.8ZM108.21,53.34c10.61,5.67,10.79,5.85,6.04,10.79-5.67,6.04-3.48,8.6,2.56,2.93q4.57-4.21,7.32-.73c8.6,11.34,7.68,24.69-2.2,35.67l-6.59,7.32-8.96-8.78-8.78-8.6,5.49-5.67c10.98-11.34,4.57-19.76-6.95-9.15l-7.13,6.22-8.78-8.96q-8.96-8.96-5.3-12.99c8.78-9.69,23.78-13.35,33.29-8.05ZM79.13,76.93c4.21,4.39,7.68,9.15,7.5,10.43-.91,5.67.18,7.13,5.12,7.13,3.66,0,7.5,2.38,13.17,8.23l8.05,8.23-13.54,13.72c-7.68,7.87-16.28,14.63-19.76,15.73-12.26,4.02-26.71-2.74-35.3-16.46-6.04-9.33-6.77-17.56-2.38-26.34,3.29-6.59,24.33-28.72,27.26-28.72,1.1,0,5.49,3.66,9.88,8.05ZM98.88,84.98c-3.66,3.66-7.32,6.04-8.05,5.3-.55-.73,2.01-4.57,6.04-8.78,3.84-4.02,7.32-6.4,7.87-5.12.37,1.1-2.38,4.94-5.85,8.6Z"/>
  </g>
  <g>
    <path class="cls-1" d="M201.47,186.31c0-8.57-1.66-11.51-6.01-10.75-1.28.13-3.58-.64-5.25-1.79-1.66-1.02-3.97-1.79-5.37-1.41-1.28.38-2.69,0-3.07-.77-.51-.77-2.56-1.41-4.73-1.41-3.58,0-3.71-.13-3.71-6.78,0-7.04-1.54-9.85-5.25-9.85-5.37,0-6.27,3.07-6.27,22v18.04l-3.2-3.45c-5.12-5.5-16.25-3.84-13.94,2.3.22.57.47.87.78,1.35.76,1.16,1.33,2,2.19,3.18.33.48,3.89,3.7,9.43,12.22,6.52,10.11,10.62,12.15,24.18,12.15,11.39,0,11.51,0,15.86-4.35,3.97-3.97,4.35-4.99,4.35-12.15v-7.8M180.74,218.81c-10.75,0-11.39-.13-15.74-3.97-2.56-2.3-6.14-6.78-7.93-9.98-1.79-3.2-4.99-7.68-7.16-9.98-3.45-3.71-3.58-4.09-1.41-5.25,3.45-1.79,5.63-.64,11,5.25l4.86,5.37v-21.24c0-11.64.38-21.62.9-22.13s1.79-.64,2.94-.51c1.54.38,2.05,2.56,2.3,10.62.38,10.75,2.05,14.97,3.58,9.08,1.15-4.86,6.14-4.22,6.65.77.51,4.22,2.17,4.73,3.2,1.02,1.02-3.97,6.01-3.45,6.01.64,0,3.71,1.92,4.22,3.58,1.02.77-1.28,2.05-1.79,3.33-1.28,1.79.64,2.05,3.2,2.05,16.25,0,22.39-1.41,24.18-18.17,24.31Z"/>
    <path class="cls-1" d="M205.69,197.06c8.19,0,8.57-1.41,8.57-31.6,0-24.44-.26-26.99-2.3-28.91s-6.78-2.17-40.17-2.17-37.87.13-39.79,2.3c-1.92,2.05-2.17,6.01-2.17,29.3,0,31.47-.13,31.09,11.9,31.09l-.1-2.55c-.53.05.16,0-1.18,0-2.69,0-5.63-.64-6.52-1.54-2.17-2.17-2.17-52.33,0-54.5,2.17-2.17,74.07-2.17,76.25,0s2.17,52.33,0,54.5c-.9.9-2.57,1.51-4.49,1.51"/>
  </g>
</svg>