<?xml version="1.0" encoding="UTF-8"?>
<svg id="text" xmlns="http://www.w3.org/2000/svg" viewBox="0 0 250 250">
  <defs>
    <style>
      .cls-1, .cls-2 {
        fill: #fff;
      }

      .cls-2 {
        fill-rule: evenodd;
      }
    </style>
  </defs>
  <g>
    <path class="cls-2" d="M97.99,56.75c-2.32,2.14-4.51,4.42-4.88,5.11-.56,1.02-.65,5.9-.65,27.85v26.55l1.58,1.58,1.58,1.58h59.23l1.58-1.58,1.58-1.58v-26.64c-.05-20.04-.19-26.92-.6-27.66-.33-.56-2.56-2.79-4.97-5.02l-4.37-4h-45.79l-4.28,3.81ZM147.69,55.36c.42.42.56,6.04.56,22.55,0,21.25-.05,21.99-.88,22.45-.6.28-8.51.46-22.55.46-19.01,0-21.66-.09-22.31-.74s-.74-3.3-.74-22.27.09-21.62.74-22.27,3.35-.74,22.69-.74c16.46,0,22.08.14,22.5.56ZM100.36,101.52c.05.23-1.21,3.39-2.84,6.97l-2.98,6.51-.14-25.1c-.05-13.81,0-25.57.14-26.08.14-.56,1.35-2.09,2.65-3.39l2.46-2.32.28,21.48c.14,11.81.33,21.66.42,21.94ZM156.15,89.25c0,14.13-.19,25.52-.37,25.29-.23-.28-1.67-3.35-3.25-6.83-2.46-5.44-2.79-6.55-2.42-7.58.28-.74.46-9.25.46-21.76v-20.55l2.79,2.88,2.79,2.84v25.71ZM151.17,109.66c1.77,3.86,3.02,7.21,2.88,7.44-.28.46-57.51.7-57.97.23-.14-.14,1.21-3.49,3.02-7.44l3.25-7.21h45.7l3.11,6.97Z"/>
    <path class="cls-2" d="M26.16,130.44c-1.44.28-9.48,7.95-10.23,9.76-.51,1.21-.65,6.55-.65,26.92,0,22.55.09,25.57.74,26.96,1.49,3.07.37,2.98,32.22,2.98,17.57,0,29.29-.19,29.99-.46.65-.23,1.63-1.12,2.14-1.95.93-1.49.93-2.18.84-28.22l-.14-26.68-4.6-4.37c-2.56-2.42-5.16-4.6-5.76-4.83-1.02-.42-42.54-.51-44.54-.09ZM70.98,133c.42.42.56,6,.56,22.27,0,19.15-.09,21.8-.74,22.45s-3.3.74-22.31.74c-14.04,0-21.94-.19-22.55-.46-.84-.46-.88-1.21-.88-22.45,0-16.5.14-22.13.56-22.55.79-.79,44.58-.79,45.37,0ZM23.38,178.32c.28.74-.33,2.56-2.51,7.44-1.63,3.53-2.98,6.51-3.07,6.6s-.19-11.44-.19-25.71v-25.89l2.46-2.6,2.42-2.56.23,20.83c.14,11.48.42,21.34.65,21.9ZM76.65,138.25l2.56,2.6.14,25.89c.05,15.76-.05,25.71-.33,25.43-.23-.28-1.72-3.3-3.3-6.74-2.7-5.86-2.84-6.37-2.37-8,.37-1.12.46-8.28.42-21.71-.09-11.02-.05-20.04.09-20.04s1.39,1.16,2.79,2.56ZM74.47,187.48c2.46,5.35,3.02,7.02,2.56,7.3-.74.51-56.62.56-57.41.05-.37-.23.28-2,2.05-5.9,1.39-3.07,2.84-6.28,3.16-7.11l.65-1.49,22.92.09,22.87.14,3.21,6.93Z"/>
    <path class="cls-2" d="M102.59,130.72c-.7.33-3.16,2.28-5.44,4.42-3.11,2.84-4.32,4.28-4.7,5.58-.65,2.32-.65,49.93,0,52.25.28.93,1.12,2.23,1.91,2.88l1.44,1.21h58.95l1.49-1.35,1.53-1.35.14-26.78c.09-21.01,0-27.01-.46-27.89-1.07-1.95-9.11-8.97-10.65-9.3-.79-.14-10.79-.28-22.22-.28-15.11.05-21.06.19-21.99.6ZM147.69,133c.42.42.56,6.04.56,22.55,0,21.25-.05,21.99-.88,22.45-.6.28-8.51.46-22.55.46-19.01,0-21.66-.09-22.31-.74s-.74-3.3-.74-22.45c0-16.27.14-21.85.56-22.27.79-.79,44.58-.79,45.37,0ZM99.57,155.68c-.09,15.06,0,20.41.46,21.71.56,1.72.46,1.95-2.37,8.28-1.63,3.58-3.07,6.6-3.16,6.69s-.19-11.48-.19-25.75v-25.99l2.65-2.46c1.44-1.35,2.65-2.46,2.65-2.46.05,0,0,8.97-.05,19.99ZM155.64,140.71c.6,1.3.74,52.16.09,51.46-.19-.28-1.72-3.35-3.3-6.93-2.51-5.58-2.84-6.55-2.37-7.58.37-.74.51-7.58.51-21.62v-20.5l2.28,2.05c1.21,1.12,2.46,2.51,2.79,3.11ZM151.22,187.34c2.51,5.58,3.02,7.11,2.56,7.44-.79.51-56.67.56-57.41.05-.37-.23.46-2.56,2.7-7.44l3.25-7.07h45.75l3.16,7.02Z"/>
    <path class="cls-2" d="M179.48,130.63c-1.49.56-9.2,7.72-9.81,9.11-.37.74-.51,9.44-.51,27.61v26.55l1.58,1.58,1.58,1.58h59.23l1.58-1.58,1.58-1.58v-26.64c-.05-20.27-.19-26.92-.6-27.71-.84-1.49-8.55-8.46-9.9-9.02-1.53-.56-43.28-.51-44.72.09ZM224.67,133.46c.6.84.7,3.95.6,22.31-.09,20.55-.14,21.38-.98,22.04-.79.56-4.6.65-22.55.65-19.43,0-21.66-.09-22.45-.79s-.84-2-.84-22.08c0-13.85.19-21.66.46-22.27.46-.84,1.21-.88,22.78-.88h22.27l.7,1.02ZM177.07,178.23c.33.37-.46,2.6-2.51,7.16-1.63,3.63-3.07,6.69-3.25,6.88-.14.14-.28-11.39-.28-25.66v-25.94l2.7-2.46,2.65-2.46.14,20.97c.05,12.78.28,21.2.56,21.52ZM232.62,141.04c.14.51.19,12.32.14,26.27l-.14,25.34-3.11-6.83c-2.65-5.86-3.07-7.07-2.7-8.09.28-.7.46-9.44.46-21.62v-20.46l2.56,2.23c1.44,1.21,2.7,2.65,2.79,3.16ZM228.07,187.48c2.56,5.67,3.11,7.25,2.6,7.44-.88.37-56.58.37-57.46,0-.51-.19.05-1.77,2.6-7.44l3.3-7.16h45.65l3.3,7.16Z"/>
  </g>
  <path class="cls-1" d="M118.09,87.71l-5.41-19.49h3.09l3.8,15.09h.18l3.95-15.09h3.06l3.95,15.1h.18l3.79-15.1h3.1l-5.41,19.49h-2.96l-4.1-14.6h-.15l-4.1,14.6h-2.97Z"/>
  <path class="cls-1" d="M42.68,167.08h-3.12l7.01-19.49h3.4l7.01,19.49h-3.12l-5.51-15.95h-.15l-5.52,15.95ZM43.2,159.45h10.12v2.47h-10.12v-2.47Z"/>
  <path class="cls-1" d="M129.38,152.71c-.1-.9-.52-1.6-1.26-2.1-.74-.5-1.66-.75-2.78-.75-.8,0-1.49.13-2.07.38s-1.04.59-1.36,1.03c-.32.44-.48.93-.48,1.48,0,.46.11.86.33,1.2.22.34.51.62.87.84.36.23.74.41,1.16.56.41.15.81.27,1.19.37l1.9.49c.62.15,1.26.36,1.91.62.65.26,1.26.6,1.82,1.03.56.43,1.01.95,1.36,1.58s.52,1.38.52,2.25c0,1.1-.28,2.08-.85,2.94-.57.86-1.39,1.53-2.46,2.03-1.08.49-2.37.74-3.9.74s-2.72-.23-3.79-.69c-1.07-.46-1.9-1.12-2.5-1.97-.6-.85-.94-1.87-1-3.04h2.95c.06.7.29,1.29.69,1.76.4.47.92.81,1.55,1.04.63.22,1.32.34,2.08.34.83,0,1.57-.13,2.22-.39.65-.26,1.16-.63,1.54-1.1.37-.47.56-1.03.56-1.66,0-.58-.16-1.05-.49-1.42-.33-.37-.77-.67-1.32-.91s-1.18-.45-1.88-.64l-2.3-.63c-1.56-.43-2.8-1.05-3.71-1.87-.91-.83-1.37-1.92-1.37-3.27,0-1.12.3-2.1.91-2.94s1.43-1.49,2.47-1.96c1.04-.47,2.21-.7,3.52-.7s2.49.23,3.5.69,1.81,1.1,2.39,1.91c.58.81.89,1.74.91,2.78h-2.84Z"/>
  <path class="cls-1" d="M200.72,167.08h-6.31v-19.49h6.51c1.91,0,3.55.39,4.92,1.17,1.37.78,2.42,1.89,3.15,3.34.73,1.45,1.1,3.19,1.1,5.21s-.37,3.77-1.11,5.23c-.74,1.46-1.81,2.58-3.2,3.36s-3.08,1.18-5.06,1.18ZM197.35,164.51h3.21c1.48,0,2.72-.28,3.7-.84.98-.56,1.72-1.38,2.21-2.45.49-1.07.73-2.37.73-3.92s-.24-2.83-.73-3.89c-.49-1.07-1.21-1.87-2.16-2.43s-2.15-.83-3.57-.83h-3.39v14.35Z"/>
</svg>