<?xml version="1.0" encoding="UTF-8"?>
<svg id="text" xmlns="http://www.w3.org/2000/svg" viewBox="0 0 250 250">
  <defs>
    <style>
      .cls-1, .cls-2 {
        fill: #fff;
      }

      .cls-2 {
        fill-rule: evenodd;
      }
    </style>
  </defs>
  <path class="cls-2" d="M66.4,61.7c-5,4.6-9.7,9.5-10.5,11-1.2,2.2-1.4,12.7-1.4,59.9v57.1l3.4,3.4,3.4,3.4h127.4l3.4-3.4,3.4-3.4v-57.3c-.1-43.1-.4-57.9-1.3-59.5-.7-1.2-5.5-6-10.7-10.8l-9.4-8.6h-98.5l-9.2,8.2ZM173.3,58.7c.9.9,1.2,13,1.2,48.5,0,45.7-.1,47.3-1.9,48.3-1.3.6-18.3,1-48.5,1-40.9,0-46.6-.2-48-1.6s-1.6-7.1-1.6-47.9.2-46.5,1.6-47.9,7.2-1.6,48.8-1.6c35.4,0,47.5.3,48.4,1.2ZM71.5,158c.1.5-2.6,7.3-6.1,15l-6.4,14-.3-54c-.1-29.7,0-55,.3-56.1.3-1.2,2.9-4.5,5.7-7.3l5.3-5,.6,46.2c.3,25.4.7,46.6.9,47.2ZM191.5,131.6c0,30.4-.4,54.9-.8,54.4-.5-.6-3.6-7.2-7-14.7-5.3-11.7-6-14.1-5.2-16.3.6-1.6,1-19.9,1-46.8v-44.2l6,6.2,6,6.1v55.3ZM180.8,175.5c3.8,8.3,6.5,15.5,6.2,16-.6,1-123.7,1.5-124.7.5-.3-.3,2.6-7.5,6.5-16l7-15.5h98.3l6.7,15Z"/>
  <g>
    <path class="cls-1" d="M87.38,125.61v-34.91h21.89v4.53h-16.62v10.64h15.48v4.52h-15.48v10.69h16.82v4.53h-22.09Z"/>
    <path class="cls-1" d="M135.53,105.82l-4.62.82c-.19-.59-.5-1.15-.91-1.69-.42-.53-.97-.97-1.68-1.31-.71-.34-1.59-.51-2.64-.51-1.44,0-2.65.32-3.61.96-.97.64-1.45,1.47-1.45,2.48,0,.88.32,1.58.97,2.11.65.53,1.69.97,3.14,1.31l4.16.95c2.41.56,4.2,1.42,5.39,2.57s1.77,2.67,1.77,4.52c0,1.57-.45,2.96-1.35,4.18-.9,1.22-2.16,2.18-3.77,2.87-1.61.69-3.47,1.04-5.58,1.04-2.93,0-5.32-.63-7.18-1.88-1.85-1.25-2.99-3.04-3.41-5.36l4.93-.75c.31,1.28.94,2.25,1.89,2.91.95.65,2.2.98,3.73.98,1.67,0,3.01-.35,4.01-1.05s1.5-1.55,1.5-2.57c0-.82-.3-1.51-.91-2.06-.61-.56-1.54-.98-2.79-1.26l-4.43-.97c-2.44-.56-4.25-1.44-5.41-2.66s-1.75-2.76-1.75-4.62c0-1.55.43-2.9,1.3-4.06.86-1.16,2.06-2.07,3.58-2.72s3.27-.98,5.23-.98c2.83,0,5.06.61,6.68,1.83,1.62,1.22,2.7,2.85,3.22,4.9Z"/>
    <path class="cls-1" d="M152.66,126.13c-2.53,0-4.71-.58-6.54-1.73-1.82-1.15-3.22-2.75-4.2-4.78-.98-2.03-1.47-4.36-1.47-6.99s.5-5.01,1.5-7.05c1-2.04,2.41-3.63,4.23-4.78,1.82-1.15,3.96-1.72,6.43-1.72,1.99,0,3.76.37,5.32,1.1,1.56.73,2.81,1.76,3.78,3.08.96,1.32,1.53,2.86,1.71,4.62h-4.96c-.27-1.23-.9-2.28-1.87-3.17-.97-.89-2.27-1.33-3.89-1.33-1.42,0-2.66.37-3.72,1.12-1.06.74-1.89,1.8-2.48,3.17-.59,1.37-.89,2.99-.89,4.85s.29,3.56.87,4.94c.58,1.39,1.4,2.46,2.46,3.22,1.06.76,2.32,1.14,3.76,1.14.97,0,1.84-.18,2.63-.54.79-.36,1.45-.87,1.99-1.54.54-.67.92-1.48,1.13-2.42h4.96c-.18,1.69-.73,3.21-1.65,4.53-.92,1.33-2.15,2.38-3.69,3.14-1.54.76-3.34,1.14-5.41,1.14Z"/>
  </g>
</svg>